<mxfile host="ac21e2f7-be40-47da-a91f-a72dd0317776" modified="2020-09-22T15:40:48.566Z" agent="5.0 (Windows NT 10.0; Win64; x64) AppleWebKit/537.36 (KHTML, like Gecko) Code/1.49.1 Chrome/83.0.4103.122 Electron/9.2.1 Safari/537.36" etag="L7E6nKuh7yNfg1Q2mL5D" version="13.1.3">
    <diagram id="6hGFLwfOUW9BJ-s0fimq" name="Page-1">
        <mxGraphModel dx="2528" dy="1431" grid="1" gridSize="10" guides="1" tooltips="1" connect="1" arrows="1" fold="1" page="1" pageScale="1" pageWidth="827" pageHeight="1169" math="0" shadow="0">
            <root>
                <mxCell id="0"/>
                <mxCell id="1" parent="0"/>
                <mxCell id="2" value="&lt;h4 style=&quot;font-size: 24px&quot;&gt;&lt;span style=&quot;font-weight: normal&quot;&gt;基础层&lt;/span&gt;&lt;br&gt;&lt;/h4&gt;" style="whiteSpace=wrap;html=1;aspect=fixed;align=center;fillColor=#f5f5f5;strokeColor=#666666;fontColor=#333333;" vertex="1" parent="1">
                    <mxGeometry x="70" y="270" width="100" height="100" as="geometry"/>
                </mxCell>
                <mxCell id="4" value="" style="shape=singleArrow;whiteSpace=wrap;html=1;align=center;" vertex="1" parent="1">
                    <mxGeometry x="190" y="290" width="100" height="60" as="geometry"/>
                </mxCell>
                <mxCell id="5" value="中间层" style="rounded=1;whiteSpace=wrap;html=1;align=center;fontSize=21;fontStyle=0;horizontal=1;" vertex="1" parent="1">
                    <mxGeometry x="299" y="290" width="120" height="60" as="geometry"/>
                </mxCell>
            </root>
        </mxGraphModel>
    </diagram>
</mxfile>